<svg xmlns="http://www.w3.org/2000/svg" xmlns:xlink="http://www.w3.org/1999/xlink" version="1.1" x="0px" y="0px" viewBox="0 0 100 125" enable-background="new 0 0 100 100" xml:space="preserve"><path fill-rule="evenodd" clip-rule="evenodd" d="M57.305,5.009c1,0.134,1.533,0.533,1.6,1.2c0.234,2.033,0.352,3.383,0.352,4.05  c0,1.5-0.25,2.833-0.75,4c0,0.033-0.234,0.184-0.701,0.45c-0.033-0.233-0.016-1.65,0.051-4.25c0.066-1.667-0.15-3.05-0.65-4.15  c-0.5,0.167-0.816,0.45-0.949,0.851c-0.033,0.133-0.102,0.517-0.201,1.149c-0.232,1.2-0.332,2.051-0.299,2.551  c0.033,0.933,0.383,1.75,1.049,2.449c0.367,0.367,0.518,0.851,0.451,1.45c-0.033,0.3-0.201,0.816-0.5,1.55  c-0.301,0.7-0.668,1.317-1.102,1.851c-1.766,2.1-2.633,4.25-2.6,6.45c0,2,0.283,3.566,0.85,4.699c1.033-0.866,1.617-1.866,1.75-3  c0.135-1.6,0.467-2.733,1-3.399c-0.133-0.2-0.332-0.317-0.6-0.351c-0.4,0-0.633-0.017-0.699-0.05  c-0.633-0.233-0.684-0.583-0.15-1.05c0.334-0.3,0.783-0.384,1.35-0.25c0.867,0.2,1.834-0.083,2.9-0.85  c0.967-0.801,2.283-1.217,3.949-1.25c1.635-0.034,2.967,0.316,4,1.05c1.102,0.733,1.684,1.733,1.75,3  c0.102,1.233-0.365,2.267-1.398,3.1c-2.967,2.533-6.268,3.267-9.9,2.2c-0.6-0.167-1.084-0.167-1.451,0  c-0.332,0.167-0.533,0.45-0.6,0.85c-0.066,0.4-0.166,1-0.299,1.801c-0.068,0.699,0.016,1.316,0.25,1.85c0.932,2,1.35,3.6,1.25,4.8  c-0.068,0.5,0.1,0.833,0.5,1c0.232,0.167,0.35,0.283,0.35,0.351c0.232,1.3,0.9,2.466,2,3.5c0.633,0.6,1.684,1.416,3.15,2.449v0.601  c-1.268-0.5-2.967-1.601-5.102-3.3c-0.299,0.533-0.416,1.216-0.35,2.05c0.133,1.2,0.184,1.933,0.15,2.2  c-0.566-0.534-0.967-1.233-1.199-2.101c-0.201-1-0.367-1.75-0.5-2.25c-0.301,0.167-0.768,0.533-1.4,1.101c-0.533,0.5-1,0.833-1.4,1  c-0.801,0.366-1.301,0.566-1.5,0.6c-0.533,0.1-1.033-0.083-1.5-0.55c0.1-0.3,0.283-0.467,0.551-0.5c0.299,0,0.516-0.033,0.648-0.101  c1.701-0.666,2.885-1.933,3.551-3.8c0.666-1.866,0.584-3.7-0.25-5.5c-0.533-0.899-0.934-1.6-1.199-2.1  c-1.867-3.233-2.701-6.334-2.5-9.3c0.133-2.4-0.918-4.467-3.15-6.2c-1.1-0.867-2.35-1.05-3.75-0.55h-0.051  c0.967-0.834,1.85-1.2,2.65-1.101c0.834,0.101,2.1,0.767,3.801,2c-0.635-1.333-1.852-3.1-3.65-5.3  c-0.467-0.566-1.084-0.833-1.85-0.8c-0.734,0-1.334,0.233-1.801,0.7c-0.467,0.399-0.717,0.949-0.75,1.649  c0,0.7,0.184,1.351,0.551,1.95c0.432,0.533,0.783,0.833,1.049,0.9l-0.049,0.05c0.033,0,0.066-0.017,0.1-0.05  c0.6,1.166,1.783,2.017,3.549,2.55c0.4,0.133,0.584,0.35,0.551,0.649c0,0.167-0.084,0.301-0.25,0.4  c-0.133,0.133-0.283,0.184-0.449,0.15c-1.268-0.167-2.635-0.867-4.102-2.101c-1.5-1.233-2.283-2.35-2.35-3.35  c-0.199-2.2,0.484-3.7,2.051-4.5c0.699-0.367,1.533-0.467,2.5-0.3c1.033,0.166,1.816,0.566,2.35,1.199  c0.533,0.601,1.732,2.2,3.6,4.801c0.334,0.5,0.4,1.283,0.201,2.35c-0.033,0.2-0.084,0.483-0.15,0.85c0,0.301,0.166,0.584,0.5,0.851  c1.434-2.2,2.5-3.7,3.199-4.5c0.168-0.167,0.217-0.384,0.15-0.65c-0.133-0.267-0.217-0.483-0.25-0.649  c-0.199-0.7-0.35-1.5-0.449-2.4l-0.15-2.4c-0.033-0.967,0.199-2.066,0.699-3.3C55.639,5.242,56.305,4.909,57.305,5.009z   M61.756,24.859c-0.434,0.166-1.068,0.399-1.9,0.699c-0.734,0.301-1.301,0.667-1.701,1.101c-0.299,0.399-0.432,0.666-0.398,0.8  c0.166,0.4,0.5,0.533,1,0.4c0.5-0.167,1.133-0.284,1.898-0.351c1.135-0.1,1.768-0.167,1.9-0.2c1.734-0.233,3.15-1.1,4.25-2.6  c0.467-0.6,0.633-1.217,0.5-1.85c-0.1-0.634-0.467-1.084-1.1-1.351c-1.801-0.8-3.533-0.899-5.199-0.3  c-1.867,0.7-3.135,2.133-3.801,4.3c2.334-0.967,3.732-1.517,4.199-1.649c0.668-0.301,1.168-0.518,1.5-0.65  c0.568-0.233,0.918-0.167,1.051,0.2c0.199,0.5-0.018,0.85-0.65,1.05C62.973,24.559,62.455,24.692,61.756,24.859z M60.404,31.209  c-0.766-0.134-1.332-0.384-1.699-0.75c1.199-0.733,2.4-0.884,3.6-0.45c2.934,0.934,4.951,2.417,6.051,4.45  c1.033,1.934,1.666,3.15,1.9,3.65c1.633,4.1,1.148,7.699-1.451,10.8c-1.967,2.399-3.816,4.033-5.549,4.899  c-5.135,2.601-10.418,3.317-15.852,2.15c-2.766-0.566-5.082-1.783-6.949-3.65c-1.6-1.699-2.883-3.967-3.85-6.8  c-0.768-2.1-0.783-4.25-0.051-6.45c0.701-2.166,1.934-3.85,3.701-5.05c1.732-1.066,3.049-1.866,3.949-2.399  c0.199-0.167,0.5-0.25,0.9-0.25c0.367,0,0.617,0.149,0.75,0.449c0.1,0.301-0.018,0.551-0.35,0.75  c-1.801,1.167-2.918,1.851-3.352,2.051c-2.1,1.1-3.449,2.949-4.049,5.55c-0.566,2.566-0.201,4.933,1.1,7.1  c0.633,1.066,2.033,2.833,4.199,5.3c0.4,0.434,0.951,0.767,1.65,1c6.533,2.434,12.75,1.834,18.65-1.8  c2.934-1.767,4.834-4.333,5.699-7.7c0.334-1.199,0.268-2.55-0.199-4.05c-0.732-2.366-1.666-4.2-2.801-5.5  C64.904,32.775,62.904,31.676,60.404,31.209z M51.805,30.309c-0.066,0.101-0.15,0.233-0.25,0.4c-0.166,0.066-0.699,0.184-1.6,0.35  c-0.633,0.167-1.15,0.334-1.551,0.5c-0.199,0.067-0.35,0-0.449-0.199c-0.066-0.2-0.066-0.4,0-0.601  c0.133-0.533,0.684-0.917,1.65-1.149c0.967-0.2,1.65-0.101,2.049,0.3C51.654,29.942,51.705,30.075,51.805,30.309z M72.154,30.659  c-0.332-0.367-0.932-0.9-1.799-1.601c-0.834-0.699-1.451-1.3-1.85-1.8c0.932-0.333,1.865-0.149,2.799,0.55  c1.434,1.134,2.533,2.283,3.301,3.45c2.5,3.867,4.266,6.917,5.299,9.15c0.268,0.533,0.584,1.6,0.951,3.2  c1.666,7.366,0.4,13.916-3.801,19.649c-2.934,4.066-5.783,7.45-8.549,10.15c-3.102,3.033-4.951,7.133-5.551,12.3  c-0.066,0.533-0.184,1.316-0.35,2.35c-0.133,0.934-0.184,1.733-0.15,2.4c0.033,0.4-0.018,0.65-0.15,0.75  c-0.1,0.066-0.4,0.033-0.9-0.1c-0.332-0.101-0.633,0.066-0.898,0.5c-0.334,0.366-0.217,0.649,0.35,0.85  c0.467,0.167,0.65,0.467,0.549,0.9c-0.066,0.232-0.199,0.366-0.398,0.399c-0.135,0.033-0.334,0.066-0.602,0.101  c-0.365,0.1-1.332,0.216-2.898,0.35c-1.268,0.066-2.234,0.333-2.9,0.8c-0.533-0.566-1.367-0.783-2.5-0.649  c-1.6,0.166-3.033,0.25-4.301,0.25c-1.867,0-4.684,0.066-8.449,0.199c-1.1,0.067-1.951-0.033-2.551-0.3  c-0.967-0.399-1.533-0.75-1.699-1.05c-0.168-0.267-0.217-0.967-0.15-2.1c0.1-3.233-0.133-6.117-0.699-8.65  c-0.268-1.233-1.268-2.017-3-2.35c-0.801-0.2-1.75-0.518-2.852-0.95c-0.633-0.233-1.549-0.617-2.75-1.15  c-2.1-0.899-3.182-2.7-3.25-5.399c0-0.9,0.117-2.884,0.352-5.95c0-0.634,0.066-1.017,0.199-1.15c0.5-0.566,0.717-1.217,0.65-1.95  c-0.234-0.866-0.383-1.517-0.451-1.949c-0.166-1.134-0.717-1.667-1.648-1.601l-0.451-0.149c-3.033-1.268-3.434-3.134-1.199-5.601  c2.166-2.467,3.633-4.833,4.4-7.1c0.232-0.733,0.332-1.533,0.299-2.4c-0.166-2.7-0.049-5.866,0.35-9.5c0.367-3.467,2-6.283,4.9-8.45  c3.967-3.066,8.551-5.116,13.75-6.149c0.9-0.3,1.566-0.5,2-0.601c0.467-0.1,0.783,0.084,0.951,0.551c0.1,0.5-0.068,0.816-0.5,0.949  l-1.602,0.351c-4.566,0.633-8.75,2.366-12.549,5.2c-3.168,2.232-4.951,5.316-5.35,9.25c-0.135,1.166-0.201,2.866-0.201,5.1  c0,2.267-0.049,3.95-0.15,5.05c-0.166,1.101-0.482,2.066-0.949,2.9c-0.467,0.833-1.199,1.933-2.199,3.3  c-1.168,1.467-1.951,2.533-2.352,3.2l-0.648,1.1c1.266,1,2.066,1.566,2.398,1.7c0.934,0.4,1.885,0.184,2.852-0.65  c0.199-0.199,0.398-0.199,0.6,0c0.232,0.167,0.266,0.384,0.1,0.65l-0.15,0.2l-1.299,1.399c-0.102,0.233-0.135,0.384-0.102,0.45  c0.168,0.367,0.25,0.867,0.25,1.5c0,0.767,0.033,1.283,0.102,1.55c0.398-0.166,0.783-0.483,1.148-0.949  c0.434-0.601,0.734-0.967,0.9-1.101c0.234-0.3,0.418-0.517,0.551-0.649c0.232-0.233,0.467-0.25,0.699-0.051  c0.301,0.301,0.334,0.584,0.1,0.851c-0.133,0.166-0.365,0.366-0.699,0.6c-0.666,0.7-1.367,1.351-2.1,1.95  c-0.834,0.8-1.283,1.783-1.35,2.95c-0.033,1.2,0.316,2.267,1.049,3.2c-0.199-0.367-0.283-0.584-0.25-0.65  c0.234-0.967,0.717-1.9,1.451-2.8c0.398-0.5,1.133-1.233,2.199-2.2c-0.232,0.733-0.801,1.684-1.699,2.85  c-0.934,1.167-1.5,2.101-1.701,2.801c-0.533,0-0.832,0.316-0.9,0.949c-0.1,1.367,0.301,2.601,1.201,3.7  c0.867,1.101,1.967,1.717,3.299,1.851c0.5,0.066,0.918-0.117,1.25-0.551c1.334-1.633,2.15-2.717,2.451-3.25  c0.332-0.633,0.717-0.75,1.15-0.35c0.166,0.167,0.199,0.35,0.1,0.55c0,0.033-0.117,0.184-0.35,0.45l-2.602,3.15  c-0.066,0.066-0.1,0.216-0.1,0.449c0.066,0.267,0.234,0.434,0.5,0.5l0.701,0.15c1.766,0.767,3.365,0.25,4.799-1.55l0.4-0.601  c0.166-0.267,0.316-0.449,0.449-0.55c0.201-0.2,0.418-0.184,0.65,0.05c0.268,0.301,0.15,0.7-0.35,1.2  c-0.301,0.3-0.783,0.767-1.449,1.4c-0.568,0.533-0.918,1.017-1.051,1.45c-0.1,0.366-0.018,0.899,0.25,1.6  c0.367,0.866,0.584,1.45,0.65,1.75c0.367,2.667,0.449,5.25,0.25,7.75c-0.066,0.566-0.018,0.983,0.15,1.25  c0.166,0.267,0.516,0.45,1.049,0.55c1.5,0.3,3.383,0.45,5.65,0.45c2.5-0.033,4.383-0.033,5.65,0c0.4,0,0.717-0.15,0.949-0.45  c0.1-0.1,0.283-0.399,0.551-0.899c0.633-1.2,2.15-3.384,4.549-6.551c0.701-0.933,1.418-1.5,2.15-1.699l-6.4,9.1  c1.033,0.2,2.318,0.233,3.852,0.1c0.666-0.066,1.066-0.283,1.199-0.649c0.434-1.067,1.268-2.283,2.5-3.65  c1.434-1.667,2.35-2.816,2.75-3.45c0.334-0.433,0.518-0.866,0.551-1.3c0.166-2.267,0.898-4.467,2.199-6.6  c0.967-1.567,2.416-3.351,4.35-5.351c3.768-3.866,6.801-7.717,9.1-11.55c1.867-3.033,2.801-6.399,2.801-10.1  c0.066-5.033-1.25-9.5-3.949-13.4c-0.268-0.399-0.885-1.434-1.852-3.1C73.422,32.359,72.756,31.359,72.154,30.659z M53.006,82.359  c-2.367,2.767-3.834,4.583-4.4,5.449c-0.4,0.601-1,1.517-1.801,2.75c-0.732,1.033-1.582,1.717-2.549,2.051  c0.865-0.9,1.85-2.25,2.949-4.051c1.334-2.1,2.268-3.483,2.801-4.149c0.633-0.767,1-1.2,1.1-1.3  C51.605,82.676,52.238,82.426,53.006,82.359z M59.006,91.809c0.666-0.899,1.217-1.5,1.648-1.8c0.367-0.267,0.551-0.7,0.551-1.3  c-0.1-0.733-0.166-1.316-0.199-1.75c-2.033,1.733-3.5,3.616-4.4,5.65C57.539,92.775,58.338,92.509,59.006,91.809z M25.756,74.559  l4.949-5.699c-0.066,1-0.551,2.05-1.449,3.149C28.322,73.075,27.154,73.926,25.756,74.559z M42.705,85.909  c-1.666,2.267-3.084,4-4.25,5.2c2.1-3.634,4.434-7.018,7-10.15c0.232-0.233,0.4-0.384,0.5-0.45c0.268-0.1,0.566-0.066,0.9,0.101  C46.021,81.542,44.639,83.309,42.705,85.909z M40.855,81.159c-1.033,1.166-2.168,2.183-3.4,3.05c0.699-1.134,1.551-2.25,2.551-3.35  c0.332-0.367,1.232-1.284,2.699-2.75C42.506,78.942,41.889,79.959,40.855,81.159z"/><text x="0" y="115" fill="#000000" font-size="5px" font-weight="bold" font-family="'Helvetica Neue', Helvetica, Arial-Unicode, Arial, Sans-serif">Created by Saeful Muslim</text><text x="0" y="120" fill="#000000" font-size="5px" font-weight="bold" font-family="'Helvetica Neue', Helvetica, Arial-Unicode, Arial, Sans-serif">from the Noun Project</text></svg>