<svg xmlns="http://www.w3.org/2000/svg" viewBox="0 0 64 80" x="0px" y="0px"><title>skill-training-measure-guage-investment</title><g><path d="M34.35,17.22a3.91,3.91,0,0,1-1.35.64V33.6l13-4.5a3,3,0,0,1,0-.31,4,4,0,0,1,.38-1.68Z"/><path d="M31,17.86a4.06,4.06,0,0,1-1.78-1L13.81,26.26A4,4,0,0,1,14,27.41a3,3,0,0,1,0,.31L31,33.6Z"/><circle cx="32" cy="14" r="2"/><circle cx="10" cy="27.41" r="2"/><path d="M12.79,30.27,21,44.49A4,4,0,0,1,22,44.33a3.86,3.86,0,0,1,1.52.31l6.86-9.14-17-5.88A4.24,4.24,0,0,1,12.79,30.27Z"/><circle cx="22" cy="48.33" r="2"/><path d="M43.48,48.64a3.78,3.78,0,0,1,1.34-.29l3.4-16A4,4,0,0,1,46.67,31L33.62,35.5Z"/><path d="M41.89,49.85,32,36.67l-6.89,9.18A4,4,0,0,1,26,48l15.39,2.68A3.84,3.84,0,0,1,41.89,49.85Z"/><circle cx="50" cy="28.79" r="2"/><circle cx="45" cy="52.33" r="2"/><rect x="13.05" y="16.03" width="3" height="2" transform="translate(-7.1 11.27) rotate(-34.6)"/><rect x="55.34" y="36.84" width="3" height="2" transform="translate(3.35 80.29) rotate(-72.09)"/><rect x="22.93" y="9.22" width="3" height="2" transform="translate(-1.48 15.68) rotate(-34.6)"/><rect x="27.87" y="5.82" width="3" height="2" transform="translate(1.32 17.88) rotate(-34.6)"/><rect x="17.99" y="12.63" width="3" height="2" transform="translate(-4.29 13.48) rotate(-34.6)"/><rect x="33.31" y="5.09" width="2" height="3" transform="translate(9.4 31.09) rotate(-55.41)"/><rect x="57.19" y="31.14" width="3" height="2" transform="translate(10.03 78.07) rotate(-72.05)"/><rect x="48.12" y="15.31" width="2" height="3" transform="translate(7.4 47.71) rotate(-55.41)"/><rect x="53.06" y="18.72" width="2" height="3" transform="translate(6.73 53.25) rotate(-55.41)"/><polygon points="60.08 24.7 60.81 23.65 58.34 21.95 57.2 23.59 59.67 25.3 60.01 24.8 59.13 27.55 61.03 28.16 61.95 25.31 60.08 24.7"/><rect x="38.25" y="8.5" width="2" height="3" transform="translate(8.73 36.63) rotate(-55.4)"/><rect x="43.18" y="11.9" width="2" height="3" transform="translate(8.07 42.17) rotate(-55.41)"/><rect x="28.74" y="58" width="3" height="2"/><rect x="16.74" y="58" width="3" height="2"/><rect x="40.74" y="58" width="3" height="2"/><rect x="34.74" y="58" width="3" height="2"/><rect x="22.74" y="58" width="3" height="2"/><rect x="53.5" y="42.55" width="3" height="2" transform="translate(-3.38 82.45) rotate(-72.05)"/><rect x="51.65" y="48.26" width="3" height="2" transform="translate(-10.07 84.68) rotate(-72.09)"/><rect x="49.8" y="53.97" width="3" height="2" transform="translate(-16.8 86.84) rotate(-72.05)"/><rect x="46.74" y="58" width="3" height="2"/><rect x="3.22" y="27.28" width="2" height="3" transform="translate(-8.66 2.7) rotate(-17.95)"/><rect x="12.46" y="55.82" width="2" height="3" transform="translate(-16.99 6.92) rotate(-17.92)"/><rect x="5.07" y="32.99" width="2" height="3" transform="translate(-10.31 3.54) rotate(-17.91)"/><rect x="3.17" y="22.85" width="3" height="2" transform="translate(-12.71 6.87) rotate(-34.6)"/><rect x="8.11" y="19.44" width="3" height="2" transform="translate(-9.91 9.07) rotate(-34.6)"/><rect x="6.92" y="38.69" width="2" height="3" transform="translate(-12 4.39) rotate(-17.94)"/><rect x="10.61" y="50.11" width="2" height="3" transform="translate(-15.34 6.09) rotate(-17.95)"/><rect x="8.76" y="44.4" width="2" height="3" transform="translate(-13.65 5.23) rotate(-17.91)"/></g><text x="0" y="79" fill="#000000" font-size="5px" font-weight="bold" font-family="'Helvetica Neue', Helvetica, Arial-Unicode, Arial, Sans-serif">Created by mynamepong</text><text x="0" y="84" fill="#000000" font-size="5px" font-weight="bold" font-family="'Helvetica Neue', Helvetica, Arial-Unicode, Arial, Sans-serif">from the Noun Project</text></svg>